<svg width="24" height="25" viewBox="0 0 24 25" fill="none" xmlns="http://www.w3.org/2000/svg">
<path d="M22 8.57875V4.00745C22 2.58772 21.36 2.01379 19.77 2.01379H15.73C14.14 2.01379 13.5 2.58772 13.5 4.00745V8.56868C13.5 9.99847 14.14 10.5623 15.73 10.5623H19.77C21.36 10.5724 22 9.99847 22 8.57875Z" fill="white"/>
<path d="M22 19.9062V15.8384C22 14.2374 21.36 13.593 19.77 13.593H15.73C14.14 13.593 13.5 14.2374 13.5 15.8384V19.9062C13.5 21.5072 14.14 22.1516 15.73 22.1516H19.77C21.36 22.1516 22 21.5072 22 19.9062Z" fill="white"/>
<path d="M10.5 8.57875V4.00745C10.5 2.58772 9.86 2.01379 8.27 2.01379H4.23C2.64 2.01379 2 2.58772 2 4.00745V8.56868C2 9.99847 2.64 10.5623 4.23 10.5623H8.27C9.86 10.5724 10.5 9.99847 10.5 8.57875Z" fill="white"/>
<path d="M10.5 19.9062V15.8384C10.5 14.2374 9.86 13.593 8.27 13.593H4.23C2.64 13.593 2 14.2374 2 15.8384V19.9062C2 21.5072 2.64 22.1516 4.23 22.1516H8.27C9.86 22.1516 10.5 21.5072 10.5 19.9062Z" fill="white"/>
</svg>
