<svg width="24" height="24" viewBox="0 0 24 24" fill="none" xmlns="http://www.w3.org/2000/svg">
<g opacity="0.6">
<path fill-rule="evenodd" clip-rule="evenodd" d="M22.2954 6.31065C22.6761 6.47382 22.8524 6.91473 22.6893 7.29545L21.9999 7.00001C22.6893 7.29545 22.6894 7.29527 22.6893 7.29545L22.6886 7.29713L22.6875 7.29961L22.6843 7.30697L22.6736 7.33105C22.6646 7.35118 22.6518 7.3794 22.6352 7.41508C22.6019 7.48643 22.5533 7.58776 22.4888 7.71416C22.3599 7.96681 22.1675 8.32069 21.9084 8.73647C21.4828 9.41951 20.8724 10.2777 20.0619 11.1302L21.0303 12.0985C21.3231 12.3914 21.3231 12.8663 21.0303 13.1592C20.7374 13.4521 20.2625 13.4521 19.9696 13.1592L18.969 12.1586C18.3093 12.7113 17.5528 13.23 16.695 13.6562L17.6286 15.091C17.8545 15.4382 17.7562 15.9027 17.409 16.1286C17.0618 16.3546 16.5972 16.2562 16.3713 15.909L15.2821 14.2352C14.5028 14.4897 13.659 14.6626 12.7499 14.7246V16.5C12.7499 16.9142 12.4141 17.25 11.9999 17.25C11.5857 17.25 11.2499 16.9142 11.2499 16.5V14.7246C10.3689 14.6645 9.54909 14.5002 8.78982 14.2584L7.71575 15.9091C7.48984 16.2563 7.02526 16.3546 6.67807 16.1287C6.33089 15.9028 6.23257 15.4382 6.45847 15.091L7.37089 13.6888C6.5065 13.2667 5.74381 12.7502 5.07842 12.1983L4.11744 13.1592C3.82455 13.4521 3.34968 13.4521 3.05678 13.1592C2.76389 12.8664 2.76389 12.3915 3.05678 12.0986L3.98055 11.1748C3.15599 10.3151 2.53525 9.44656 2.10277 8.75468C1.83984 8.33404 1.6446 7.97566 1.51388 7.7197C1.44848 7.59164 1.3991 7.48895 1.36537 7.41665C1.3485 7.38048 1.33553 7.35189 1.32641 7.33149L1.31562 7.3071L1.31238 7.29966L1.31129 7.29714L1.31088 7.29619C1.31081 7.29602 1.31056 7.29545 1.99992 7.00001L1.31088 7.29619C1.14772 6.91547 1.32376 6.47382 1.70448 6.31065C2.08489 6.14762 2.52539 6.32356 2.68888 6.70363C2.68882 6.7035 2.68894 6.70376 2.68888 6.70363L2.68983 6.70582L2.69591 6.71953C2.7018 6.73273 2.7114 6.75392 2.72472 6.78249C2.75139 6.83965 2.79296 6.92626 2.84976 7.03748C2.96345 7.2601 3.13762 7.58028 3.37472 7.95961C3.85033 8.72048 4.57157 9.7071 5.55561 10.6216C6.42151 11.4263 7.48259 12.1676 8.75165 12.6558C9.70614 13.023 10.7854 13.25 11.9999 13.25C13.2416 13.25 14.342 13.0128 15.3124 12.6308C16.5738 12.1343 17.6277 11.3883 18.4866 10.582C19.4562 9.67198 20.1668 8.69517 20.6354 7.94321C20.869 7.56832 21.0405 7.25228 21.1525 7.03268C21.2085 6.92296 21.2494 6.83758 21.2757 6.78125C21.2888 6.7531 21.2983 6.73224 21.3041 6.71925L21.31 6.70577L21.3106 6.70457C21.3105 6.70467 21.3106 6.70447 21.3106 6.70457M22.2954 6.31065C21.9147 6.14753 21.4738 6.32405 21.3106 6.70457L22.2954 6.31065ZM2.68888 6.70363C2.68882 6.7035 2.68894 6.70376 2.68888 6.70363V6.70363Z" fill="white"/>
</g>
</svg>
