<svg width="24" height="25" viewBox="0 0 24 25" fill="none" xmlns="http://www.w3.org/2000/svg">
<g opacity="0.6">
<path d="M9.09 9.39299C9.3251 8.72005 9.78915 8.1526 10.4 7.79115C11.0108 7.4297 11.7289 7.29758 12.4272 7.41818C13.1255 7.53878 13.7588 7.90432 14.2151 8.45006C14.6713 8.9958 14.9211 9.68652 14.92 10.3999C14.92 12.4137 11.92 13.4206 11.92 13.4206M12 17.4481H12.01M22 12.4137C22 17.9746 17.5228 22.4826 12 22.4826C6.47715 22.4826 2 17.9746 2 12.4137C2 6.85275 6.47715 2.34473 12 2.34473C17.5228 2.34473 22 6.85275 22 12.4137Z" stroke="white" stroke-width="2" stroke-linecap="round" stroke-linejoin="round"/>
</g>
</svg>
