<svg width="60" height="60" viewBox="0 0 60 60" fill="none" xmlns="http://www.w3.org/2000/svg">
<path d="M32.081 54.5033C39.8958 52.9368 50 47.3151 50 32.7779C50 19.549 40.3167 10.7398 33.3538 6.69211C31.8088 5.79394 30 6.97515 30 8.76229V13.3335C30 16.9381 28.4844 23.5178 24.2733 26.2545C22.1233 27.6517 19.8013 25.5605 19.54 23.0097L19.3254 20.9151C19.076 18.4801 16.596 17.0019 14.6499 18.4865C11.1537 21.1536 7.5 25.824 7.5 32.7779C7.5 50.5557 20.7222 55.0002 27.3333 55.0002C27.7179 55.0002 28.122 54.9886 28.5427 54.9645C25.2783 54.6854 20 52.6601 20 46.1106C20 40.9873 23.7377 37.5212 26.5776 35.8365C27.3413 35.3834 28.2353 35.9717 28.2353 36.8598V38.3328C28.2353 39.4601 28.6713 41.2222 29.7091 42.4285C30.8835 43.7935 32.6073 42.3636 32.7463 40.5683C32.7901 40.0019 33.3597 39.641 33.8502 39.9277C35.4535 40.8647 37.5 42.8663 37.5 46.1106C37.5 51.2306 34.6776 53.5858 32.081 54.5033Z" fill="white"/>
</svg>
