<?xml version="1.0" standalone="no"?>
<!DOCTYPE svg PUBLIC "-//W3C//DTD SVG 20010904//EN"
 "http://www.w3.org/TR/2001/REC-SVG-20010904/DTD/svg10.dtd">
<svg version="1.0" xmlns="http://www.w3.org/2000/svg"
 width="164.000000pt" height="164.000000pt" viewBox="0 0 164.000000 164.000000"
 preserveAspectRatio="xMidYMid meet">
<metadata>
Created by potrace 1.14, written by Peter Selinger 2001-2017
</metadata>
<g transform="translate(0.000000,164.000000) scale(0.100000,-0.100000)"
fill="#000000" stroke="none">
<path d="M782 1406 c-24 -13 -53 -53 -93 -126 -13 -25 -28 -49 -32 -55 -24
-31 -78 -131 -86 -160 -13 -48 17 -107 62 -122 17 -6 87 -11 155 -12 67 0 130
-4 138 -9 9 -5 22 -23 29 -40 11 -25 11 -35 -1 -58 -28 -53 -31 -53 -289 -54
-169 -1 -246 -4 -262 -13 -22 -12 -54 -50 -66 -77 -4 -8 -17 -31 -29 -52 -13
-20 -39 -62 -58 -95 -19 -32 -42 -71 -52 -88 -48 -79 -66 -127 -58 -153 26
-86 38 -90 275 -88 205 1 224 6 249 54 22 44 12 91 -42 182 -55 93 -67 127
-57 159 7 22 50 49 73 45 6 -1 16 -2 20 -3 23 -3 54 -46 122 -166 40 -72 81
-145 92 -163 34 -61 51 -83 72 -95 27 -15 457 -20 503 -5 36 10 78 61 69 83
-2 7 -1 15 4 17 10 3 -29 86 -83 174 -20 34 -37 67 -37 73 0 6 -3 11 -8 11 -4
0 -13 12 -19 28 -26 57 -66 93 -107 97 -60 6 -98 -21 -137 -96 -10 -21 -24
-43 -31 -50 -7 -8 -20 -27 -28 -42 -26 -51 -58 -76 -93 -71 -36 4 -67 36 -67
68 1 11 9 35 18 52 9 17 26 47 36 67 11 20 23 37 28 37 4 0 8 4 8 10 0 5 31
60 70 122 94 150 96 166 35 263 -14 22 -33 54 -41 70 -8 17 -21 39 -27 50 -7
11 -36 61 -65 112 -30 50 -62 99 -72 108 -24 21 -88 28 -118 11z"/>
</g>
</svg>
